<?xml version="1.0" encoding="UTF-8"?>
<svg version="1.1" xmlns="http://www.w3.org/2000/svg" width="80" height="80">
<path d="M0 0 C8.97442533 3.70865381 16.89599822 8.76041567 24.06201172 15.31738281 C24.74392578 15.90777344 25.42583984 16.49816406 26.12841797 17.10644531 C33.59009918 23.96943977 41.98451417 34.89922661 43.46826172 45.11425781 C43.7154548 52.90083994 42.38475856 57.57325185 37.06201172 63.31738281 C30.32138222 70.14227018 21.92546513 73.21235136 13.06201172 76.31738281 C12.15708984 76.66027344 11.25216797 77.00316406 10.31982422 77.35644531 C0.54236274 80.61559914 -13.12378865 81.65276274 -22.68798828 77.31738281 C-30.00296092 72.78541896 -34.75143972 66.67612173 -36.93798828 58.31738281 C-37.36397703 54.9514131 -37.41477893 51.64479266 -37.37548828 48.25488281 C-37.36791504 47.33457275 -37.3603418 46.4142627 -37.35253906 45.46606445 C-37.00572519 30.92393096 -32.61720245 16.44481274 -22.93798828 5.31738281 C-16.22303402 -0.92373395 -8.85305385 -3.11830922 0 0 Z " fill="#FF0066" transform="translate(36.93798828125,0.6826171875)"/>
</svg>
