<svg xmlns="http://www.w3.org/2000/svg" viewBox="0 0 252.000000 252.000000"><g transform="translate(0.000000,252.000000) scale(0.100000,-0.100000)" stroke="none"><path d="M1285 2478 c-10 -59 13 -74 163 -103 33 -7 92 -49 92 -66 0 -5 -81 -9 -186 -9 -201 0 -192 2 -394 -69 -19 -7 -50 -17 -69 -21 -18 -5 -38 -13 -44 -19 -6 -6 -19 -11 -30 -11 -40 0 -171 -75 -226 -129 -63 -63 -121 -133 -141 -171 -18 -35 -61 -80 -77 -80 -28 0 -23 30 16 112 52 109 141 206 255 279 80 50 111 87 92 106 -10 11 -133 -25 -201 -59 -97 -47 -157 -107 -252 -249 -85 -130 -107 -154 -183 -199 -49 -29 -62 -50 -65 -102 -1 -21 -10 -47 -19 -57 -20 -22 -21 -128 -2 -181 24 -66 115 -92 131 -37 4 12 15 31 25 42 10 11 23 32 29 48 6 15 15 27 21 27 14 0 13 -10 -6 -61 -10 -29 -15 -74 -14 -134 1 -49 1 -120 0 -156 0 -41 5 -76 15 -95 16 -31 19 -96 6 -129 -7 -18 -9 -18 -23 10 -9 17 -19 46 -23 65 -13 62 -41 76 -91 43 -24 -15 -25 -20 -19 -68 3 -31 2 -62 -5 -77 -9 -20 -8 -33 5 -64 9 -21 28 -70 41 -107 31 -90 85 -178 153 -252 31 -33 72 -78 91 -100 109 -123 147 -108 61 24 -27 42 -59 101 -71 131 -11 30 -34 82 -50 115 -47 96 -76 257 -32 176 10 -17 34 -55 55 -86 21 -30 52 -83 69 -117 80 -163 169 -269 259 -310 20 -9 104 -62 189 -117 113 -75 172 -107 229 -125 42 -14 108 -36 146 -50 111 -41 175 -33 175 20 0 42 40 74 101 83 42 5 80 22 150 63 52 31 137 77 189 102 56 27 121 69 158 101 65 56 88 66 98 41 16 -41 -97 -132 -270 -219 -139 -70 -159 -89 -110 -107 82 -32 197 19 382 168 113 90 146 130 206 248 38 75 46 99 46 146 0 49 5 63 43 119 50 74 51 76 83 189 26 93 31 198 14 293 -6 31 -15 89 -20 129 -8 67 -34 193 -59 292 -5 21 -14 43 -20 49 -6 6 -11 17 -11 24 0 37 -188 289 -273 367 -18 16 -53 48 -79 72 -85 80 -198 145 -358 208 -25 10 -56 24 -70 31 -14 7 -37 15 -52 19 -16 3 -28 13 -28 21 0 12 -19 15 -104 15 l-104 0 -7 -42z"/><path d="M72 1318 c-18 -18 -14 -44 11 -74 33 -37 57 -27 57 24 0 40 -14 62 -40 62 -9 0 -21 -5 -28 -12z"/></g></svg>